<svg width="19" height="17" viewBox="0 0 19 17" fill="none" xmlns="http://www.w3.org/2000/svg">
<path d="M6.20776 11.4046H16.2275C16.4756 11.4046 16.6932 11.2404 16.7604 11.0019L18.9789 3.23017C19.0265 3.06262 18.9939 2.88264 18.8889 2.74343C18.7838 2.60466 18.6203 2.52269 18.4458 2.52269H4.92744L4.53099 0.737083C4.47467 0.482802 4.24937 0.302246 3.9894 0.302246H0.624901C0.318433 0.302246 0.0703125 0.5506 0.0703125 0.857357C0.0703125 1.16426 0.318433 1.41247 0.624901 1.41247H3.54429L5.54702 10.433C4.95777 10.6895 4.54399 11.2765 4.54399 11.9597C4.54399 12.878 5.29037 13.6251 6.20776 13.6251H16.2275C16.5341 13.6251 16.7821 13.3768 16.7821 13.0699C16.7821 12.7632 16.5341 12.5148 16.2275 12.5148H6.20776C5.9023 12.5148 5.65317 12.266 5.65317 11.9597C5.65317 11.6534 5.9023 11.4046 6.20776 11.4046Z" fill="white"/>
<path d="M5.65332 15.2895C5.65332 16.2076 6.39971 16.9544 7.31724 16.9544C8.23463 16.9544 8.98102 16.2076 8.98102 15.2895C8.98102 14.3714 8.23463 13.6245 7.31724 13.6245C6.39971 13.6245 5.65332 14.3714 5.65332 15.2895Z" fill="white"/>
<path d="M13.4541 15.2895C13.4541 16.2076 14.2005 16.9544 15.1179 16.9544C16.0354 16.9544 16.7817 16.2076 16.7817 15.2895C16.7817 14.3714 16.0354 13.6245 15.1179 13.6245C14.2005 13.6245 13.4541 14.3714 13.4541 15.2895Z" fill="white"/>
</svg>
