<svg width="30" height="11" viewBox="0 0 30 11" fill="none" xmlns="http://www.w3.org/2000/svg">
<path d="M29.8262 5.12878L23.1597 0.115258C22.9745 -0.00886443 22.772 -0.0327459 22.5521 0.0436644C22.3324 0.120175 22.222 0.258546 22.222 0.459179V3.66781H0.555542C0.393428 3.66781 0.260258 3.7107 0.156216 3.79665C0.0522341 3.88254 0 3.99241 0 4.12607V6.87624C0 7.00984 0.0519909 7.11971 0.156155 7.20551C0.260441 7.2914 0.39361 7.3343 0.555481 7.3343H22.2222V10.5429C22.2222 10.7341 22.3327 10.8725 22.5522 10.9582C22.7724 11.0349 22.9749 11.0059 23.1601 10.8725L29.8266 5.80137C29.9423 5.70595 30 5.59156 30 5.45775C30 5.33393 29.9419 5.22426 29.8262 5.12878Z" fill="#BB83A7"/>
</svg>
